{
	"asset":{
		"generator":"Khronos glTF Blender I/O v3.6.27",
		"version":"2.0"
	},
	"extensionsUsed":[
		"KHR_materials_specular",
		"KHR_materials_ior"
	],
	"scene":0,
	"scenes":[
		{
			"name":"Scene",
			"nodes":[
				0
			]
		}
	],
	"nodes":[
		{
			"mesh":0,
			"name":"MolView.mol",
			"rotation":[
				0.7071068286895752,
				0,
				0,
				0.7071068286895752
			]
		}
	],
	"materials":[
		{
			"doubleSided":true,
			"extensions":{
				"KHR_materials_specular":{
					"specularColorFactor":[
						0.020080160244135427,
						0.020080160244135427,
						0.020080160244135427
					]
				},
				"KHR_materials_ior":{
					"ior":0.0010000000474974513
				}
			},
			"name":"k000000",
			"pbrMetallicRoughness":{
				"baseColorFactor":[
					0,
					0,
					0,
					1
				],
				"metallicFactor":0,
				"roughnessFactor":0.5962674021720886
			}
		},
		{
			"doubleSided":true,
			"extensions":{
				"KHR_materials_specular":{
					"specularColorFactor":[
						0.020080160244135427,
						0.020080160244135427,
						0.020080160244135427
					]
				},
				"KHR_materials_ior":{
					"ior":0.0010000000474974513
				}
			},
			"name":"kffffff",
			"pbrMetallicRoughness":{
				"metallicFactor":0,
				"roughnessFactor":0.5962674021720886
			}
		},
		{
			"doubleSided":true,
			"extensions":{
				"KHR_materials_specular":{
					"specularColorFactor":[
						0.020080160244135427,
						0.020080160244135427,
						0.020080160244135427
					]
				},
				"KHR_materials_ior":{
					"ior":0.0010000000474974513
				}
			},
			"name":"k808080",
			"pbrMetallicRoughness":{
				"baseColorFactor":[
					0.5040000081062317,
					0.5040000081062317,
					0.5040000081062317,
					1
				],
				"metallicFactor":0,
				"roughnessFactor":0.5962674021720886
			}
		}
	],
	"meshes":[
		{
			"name":"MolView.mol",
			"primitives":[
				{
					"attributes":{
						"POSITION":0,
						"NORMAL":1
					},
					"indices":2,
					"material":0
				},
				{
					"attributes":{
						"POSITION":3,
						"NORMAL":4
					},
					"indices":5,
					"material":1
				},
				{
					"attributes":{
						"POSITION":6,
						"NORMAL":7
					},
					"indices":8,
					"material":2
				}
			]
		}
	],
	"accessors":[
		{
			"bufferView":0,
			"componentType":5126,
			"count":8205,
			"max":[
				2.296799898147583,
				0.7131999731063843,
				1.9537999629974365
			],
			"min":[
				-2.315500020980835,
				-0.713100016117096,
				-1.9542999267578125
			],
			"type":"VEC3"
		},
		{
			"bufferView":1,
			"componentType":5126,
			"count":8205,
			"type":"VEC3"
		},
		{
			"bufferView":2,
			"componentType":5123,
			"count":30720,
			"type":"SCALAR"
		},
		{
			"bufferView":3,
			"componentType":5126,
			"count":16407,
			"max":[
				3.0729000568389893,
				1.6598999500274658,
				2.835900068283081
			],
			"min":[
				-3.051100015640259,
				-1.6597999334335327,
				-2.836400032043457
			],
			"type":"VEC3"
		},
		{
			"bufferView":4,
			"componentType":5126,
			"count":16407,
			"type":"VEC3"
		},
		{
			"bufferView":5,
			"componentType":5123,
			"count":61440,
			"type":"SCALAR"
		},
		{
			"bufferView":6,
			"componentType":5126,
			"count":52611,
			"max":[
				2.898900032043457,
				1.4858999252319336,
				2.661900043487549
			],
			"min":[
				-2.8770999908447266,
				-1.4857999086380005,
				-2.662400007247925
			],
			"type":"VEC3"
		},
		{
			"bufferView":7,
			"componentType":5126,
			"count":52611,
			"type":"VEC3"
		},
		{
			"bufferView":8,
			"componentType":5123,
			"count":189504,
			"type":"SCALAR"
		}
	],
	"bufferViews":[
		{
			"buffer":0,
			"byteLength":98460,
			"byteOffset":0,
			"target":34962
		},
		{
			"buffer":0,
			"byteLength":98460,
			"byteOffset":98460,
			"target":34962
		},
		{
			"buffer":0,
			"byteLength":61440,
			"byteOffset":196920,
			"target":34963
		},
		{
			"buffer":0,
			"byteLength":196884,
			"byteOffset":258360,
			"target":34962
		},
		{
			"buffer":0,
			"byteLength":196884,
			"byteOffset":455244,
			"target":34962
		},
		{
			"buffer":0,
			"byteLength":122880,
			"byteOffset":652128,
			"target":34963
		},
		{
			"buffer":0,
			"byteLength":631332,
			"byteOffset":775008,
			"target":34962
		},
		{
			"buffer":0,
			"byteLength":631332,
			"byteOffset":1406340,
			"target":34962
		},
		{
			"buffer":0,
			"byteLength":379008,
			"byteOffset":2037672,
			"target":34963
		}
	],
	"buffers":[
		{
			"byteLength":2416680,
			"uri":"data:application/octet-stream;base64,"
		}
	]
}
